<svg id="eV2qiQrkIpg1" xmlns="http://www.w3.org/2000/svg" xmlns:xlink="http://www.w3.org/1999/xlink" viewBox="0 0 512 347.28" shape-rendering="geometricPrecision" text-rendering="geometricPrecision"><path d="M366.292329,134.159603q.42018-21.649241.42018-29.585676c0-7.936435-6.461669-15.047888-18.79138-15.047888s-119.077327.291049-129.440238,0-12.23531-2.328392-20.488289-8.339944-14.224346-21.757358-19.241602-30.123464q-5.017256-8.366106-18.01205-8.104441-77.710726.582098-88.390259.873147t-11.220752,7.231294q0,235.287264,0,235.295216c0,.007953-.296362,15.984204,11.220752,15.984204" transform="translate(-.56382 0.961663)" fill="none" stroke="#000" stroke-width="5"/><path d="M61.127939,290.388304L125.89954,150.80088q5.550007-13.094095,23.022233-13.094095t294.355865,0q11.441772,2.087644,7.307203,13.094095t-65.971615,145.782297q-7.252534,9.781378-17.837099,9.781378t-294.451293,0q-11.196895-.427109-11.196895-15.976251Z" transform="translate(-.230074-2.996833)" fill="none" stroke="#000" stroke-width="5"/></svg>
