<svg id="ectFRu5UYp91" xmlns="http://www.w3.org/2000/svg" xmlns:xlink="http://www.w3.org/1999/xlink" viewBox="0 0 512 347.28" shape-rendering="geometricPrecision" text-rendering="geometricPrecision"><path d="M366.292329,134.159603q.42018-21.649241.42018-29.585676c0-7.936435-6.461669-15.047888-18.79138-15.047888s-119.077327.291049-129.440238,0-12.23531-2.328392-20.488289-8.339944-14.224346-21.757358-19.241602-30.123464q-5.017256-8.366106-18.01205-8.104441-77.710726.582098-88.390259.873147t-11.220752,7.231294q0,235.287264,0,235.295216c0,.007953-.296362,15.984204,11.220752,15.984204" transform="translate(-5.08154-18.851008)" fill="none" stroke="#000" stroke-width="5"/><path d="M289.893231,306.300547c-49.140978,0-119.991165.064008-217.568397.064008q-11.196895-.427109-11.196895-15.976251L125.89954,150.80088q5.550007-13.094095,23.022233-13.094095t294.355865,0q11.441772,2.087644,7.307203,13.094095c-1.263221,3.362764-6.566185,15.390607-15.908892,36.083531" transform="translate(-4.747794-22.809504)" fill="none" stroke="#000" stroke-width="5"/><path d="M366.148689,183.887578l-.42018,131.201237" transform="translate(-4.51772-19.812671)" fill="none" stroke="#000" stroke-width="4"/><path d="M366.148689,183.887578l-.42018,131.201237" transform="matrix(0 1-1 0 610.909076-136.263073)" fill="none" stroke="#000" stroke-width="4"/><ellipse rx="88.076347" ry="88.076347" transform="matrix(1.070919 0 0 1.070919 361.630969 228.85776)" fill="none" stroke="#000" stroke-width="4"/></svg>
